HIERARCHY
ROOT Hips
{
    OFFSET 0.000000 0.000000 0.000000
    CHANNELS 6 Xposition Yposition Zposition Zrotation Xrotation Yrotation
    JOINT Spine
    {
        OFFSET -0.000000 8.505030 0.000000
        CHANNELS 3 Zrotation Xrotation Yrotation
        JOINT Spine1
        {
            OFFSET -0.000000 25.070629 0.000000
            CHANNELS 3 Zrotation Xrotation Yrotation
            JOINT Neck
            {
                OFFSET -0.000000 24.967667 2.269788
                CHANNELS 3 Zrotation Xrotation Yrotation
                JOINT Head
                {
                    OFFSET -0.000000 14.520781 -2.074397
                    CHANNELS 3 Zrotation Xrotation Yrotation
                    End Site
                    {
                        OFFSET -0.000000 25.929966 0.000000
                    }
                }
            }
            JOINT LeftShoulder
            {
                OFFSET 4.117346 22.983784 -0.389865
                CHANNELS 3 Zrotation Xrotation Yrotation
                JOINT LeftArm
                {
                    OFFSET 11.957758 0.000000 0.000000
                    CHANNELS 3 Zrotation Xrotation Yrotation
                    JOINT LeftForeArm
                    {
                        OFFSET 31.907600 0.000000 0.000000
                        CHANNELS 3 Zrotation Xrotation Yrotation
                        JOINT LeftHand
                        {
                            OFFSET 28.601147 0.000000 0.000000
                            CHANNELS 3 Zrotation Xrotation Yrotation
                            End Site
                            {
                                OFFSET 15.557981 0.000000 0.000000
                            }
                        }
                    }
                }
            }
            JOINT RightShoulder
            {
                OFFSET -4.061940 22.983784 -0.389865
                CHANNELS 3 Zrotation Xrotation Yrotation
                JOINT RightArm
                {
                    OFFSET -11.957758 0.000000 0.000000
                    CHANNELS 3 Zrotation Xrotation Yrotation
                    JOINT RightForeArm
                    {
                        OFFSET -31.907600 0.000000 0.000000
                        CHANNELS 3 Zrotation Xrotation Yrotation
                        JOINT RightHand
                        {
                            OFFSET -28.601147 0.000000 0.000000
                            CHANNELS 3 Zrotation Xrotation Yrotation
                            End Site
                            {
                                OFFSET -15.557981 0.000000 0.000000
                            }
                        }
                    }
                }
            }
        }
    }
    JOINT LeftUpLeg
    {
        OFFSET 10.371986 0.000000 0.000000
        CHANNELS 3 Zrotation Xrotation Yrotation
        JOINT LeftLeg
        {
            OFFSET -0.000000 -42.486427 0.000000
            CHANNELS 3 Zrotation Xrotation Yrotation
            JOINT LeftFoot
            {
                OFFSET -0.000000 -48.322342 0.000000
                CHANNELS 3 Zrotation Xrotation Yrotation
                JOINT LeftToeBase
                {
                    OFFSET -0.000000 -6.741791 15.557981
                    CHANNELS 3 Zrotation Xrotation Yrotation
                    End Site
                    {
                        OFFSET -0.000000 0.000000 4.148795
                    }
                }
            }
        }
    }
    JOINT RightUpLeg
    {
        OFFSET -10.371986 0.000000 0.000000
        CHANNELS 3 Zrotation Xrotation Yrotation
        JOINT RightLeg
        {
            OFFSET -0.000000 -42.486427 0.000000
            CHANNELS 3 Zrotation Xrotation Yrotation
            JOINT RightFoot
            {
                OFFSET -0.000000 -48.322342 0.000000
                CHANNELS 3 Zrotation Xrotation Yrotation
                JOINT RightToeBase
                {
                    OFFSET -0.000000 -6.741791 15.557981
                    CHANNELS 3 Zrotation Xrotation Yrotation
                    End Site
                    {
                        OFFSET -0.000000 0.000000 4.148795
                    }
                }
            }
        }
    }
}
MOTION
Frames:    8
Frame Time:    0.008333
13.193187    95.947922    48.842377    2.627764    -0.393189    80.753494    1.157418    -5.985382    -0.700190    3.855536    3.821838    -0.889357    -8.528522    31.276064    0.928334    -0.911099    -3.421388    -0.460159    18.684460    -6.080967    -5.480915    -1.423256    6.564739    -11.258347    27.087460    -19.739162    -56.777134    45.924305    2.758615    18.450981    -16.216778    4.740479    -13.289549    70.809654    70.795418    12.744015    4.839849    -18.807827    29.854870    17.155306    -19.155012    6.119786    8.170620    -7.183025    7.938072    -2.361479    26.253681    8.943365    -5.276209    -13.965327    8.694452    0.000000    0.000000    0.000000    -4.446892    -7.088037    2.047082    2.929301    28.360521    -1.607157    5.394300    -17.329073    -10.509641    0.000000    0.000000    0.000000    
13.211208    95.934990    48.953583    2.702091    -0.442448    80.745354    1.004570    -6.220800    -0.516736    4.157183    4.316174    -0.728082    -8.805543    30.962852    0.662730    -0.353599    -3.122497    -0.652494    18.787651    -5.597388    -4.960268    -0.334785    11.722716    -12.614326    28.673676    -20.146788    -56.486416    49.711685    3.670927    17.987110    -16.518417    4.649409    -13.637454    71.151787    70.733398    12.501226    5.274875    -18.853182    30.037273    16.975689    -19.331707    6.091727    8.262251    -7.093120    7.748589    -2.447074    26.276142    8.978158    -5.161303    -13.996133    8.896318    0.000000    0.000000    0.000000    -4.383521    -6.958807    1.943040    2.941931    28.321955    -1.541300    5.280432    -17.373005    -10.472669    0.000000    0.000000    0.000000    
13.226310    95.918396    49.046654    2.784288    -0.477708    80.807945    0.824623    -6.425363    -0.365500    4.461421    4.709805    -0.595451    -8.901328    30.886604    0.404617    -0.042237    -3.020049    -0.875199    18.949213    -5.161496    -4.773962    0.968469    13.785333    -13.918490    27.488716    -18.172256    -57.081806    53.581059    4.882459    15.793178    -16.714470    4.685287    -13.825740    71.428528    70.622070    12.204480    5.637838    -18.958549    30.361021    16.706938    -19.567036    6.031657    8.314352    -7.029786    7.569958    -2.483965    26.302694    9.074549    -5.046222    -13.984239    8.960887    0.000000    0.000000    0.000000    -4.331420    -6.884080    1.794539    2.925532    28.400171    -1.485316    5.294796    -17.434124    -10.418901    0.000000    0.000000    0.000000    
13.228783    95.891655    49.123425    2.879064    -0.477463    80.881912    0.696767    -6.545501    -0.229066    4.644349    4.977949    -0.470982    -8.924701    30.753609    0.205115    0.118616    -2.734904    -1.047049    19.178734    -4.886868    -4.751284    2.007171    14.614205    -15.402285    26.682333    -14.885622    -55.365032    55.626186    5.319032    11.423384    -16.799278    4.712015    -13.917921    71.808304    70.604034    11.749886    5.897612    -19.159241    30.678766    16.475172    -19.864313    6.012982    8.305537    -7.002491    7.506215    -2.429283    26.390274    9.049011    -4.968654    -13.987562    9.015742    0.000000    0.000000    0.000000    -4.365363    -6.833545    1.738056    3.045121    28.529936    -1.437632    5.182296    -17.525450    -10.513221    0.000000    0.000000    0.000000    
13.218408    95.876419    49.197830    2.930016    -0.506693    81.069244    0.616979    -6.651526    -0.140276    4.829019    5.171888    -0.394389    -9.210482    31.015627    0.000649    0.580567    -3.087464    -1.247558    19.255062    -4.814758    -5.096825    2.806261    15.646443    -16.427328    27.223883    -11.803715    -51.498798    56.724758    5.381608    7.087933    -16.882320    4.708914    -14.034595    72.236908    70.993797    11.197970    6.064332    -19.598259    31.105629    15.953317    -20.392200    6.022457    8.329246    -7.072041    7.467151    -2.337160    26.512203    8.969758    -4.889742    -13.941505    9.025053    0.000000    0.000000    0.000000    -4.353644    -6.755832    1.526941    3.097223    28.556372    -1.388510    5.123613    -17.572369    -10.554357    0.000000    0.000000    0.000000    
13.206418    95.849953    49.277763    3.036311    -0.536321    81.354889    0.605997    -6.676134    -0.133697    4.787547    5.353211    -0.393031    -9.338740    30.826473    -0.185909    0.963072    -2.748095    -1.380215    19.434309    -4.764041    -5.611262    3.100842    15.041679    -17.208860    26.806601    -8.092966    -47.038383    58.965553    5.881221    3.685354    -16.683514    4.631177    -13.993493    72.556015    70.895615    10.579442    6.514431    -19.706987    31.577032    15.291676    -20.681431    5.997644    8.355165    -7.120049    7.452931    -2.219639    26.659777    8.809590    -4.855027    -13.924518    8.993905    0.000000    0.000000    0.000000    -4.280903    -6.656961    1.145589    2.959751    28.671156    -1.409580    5.157163    -17.633089    -10.395906    0.000000    0.000000    0.000000    
13.188770    95.827843    49.335522    3.128939    -0.599206    81.675003    0.684779    -6.673740    -0.144879    4.713537    5.499935    -0.411678    -8.946423    31.126236    -0.386493    0.530270    -3.185318    -1.630033    19.584679    -5.133483    -6.313925    2.759094    13.604348    -17.720110    25.404165    -4.801075    -42.158531    61.973682    6.155553    1.653690    -16.512543    4.488691    -14.007082    73.011467    71.233498    9.842553    6.683733    -20.020605    32.031178    14.664095    -21.096716    5.990905    8.395878    -7.193978    7.518018    -2.029379    26.817173    8.537174    -4.840615    -13.922839    8.927444    0.000000    0.000000    0.000000    -4.214857    -6.573460    0.843599    2.937714    28.792532    -1.412971    5.157318    -17.656754    -10.397243    0.000000    0.000000    0.000000    
13.161596    95.799332    49.382801    3.218692    -0.628067    82.047043    0.699183    -6.726878    -0.146344    4.694179    5.790290    -0.425277    -8.297993    30.761328    -0.684873    -0.198222    -2.687021    -1.936144    19.622475    -5.450180    -7.144514    2.181513    12.113379    -18.099327    23.901472    -3.596412    -36.191322    63.443512    5.295753    1.559291    -16.328070    4.316666    -14.139282    73.384193    72.010796    9.146773    6.544354    -20.570112    32.582787    14.089021    -21.664358    5.998305    8.389913    -7.310138    7.673697    -1.749872    27.006777    8.162726    -4.866492    -13.912505    8.785139    0.000000    0.000000    0.000000    -4.183995    -6.508866    0.454891    2.885140    28.947754    -1.324735    5.118962    -17.727776    -10.468097    0.000000    0.000000    0.000000    
